<svg xmlns="http://www.w3.org/2000/svg" viewBox="0 0 420 96" role="img" aria-labelledby="title desc">
  <title id="title">Privexio full logo for light backgrounds</title>
  <desc id="desc">Privexio teal layered mark with dark wordmark on transparent background.</desc>
  <g transform="translate(24 20)" fill="none" stroke="#178282" stroke-width="4" stroke-linecap="round" stroke-linejoin="round">
    <path d="m30 4.6a5 5 0 0 0-4.1 0L4.7 14.2a2.5 2.5 0 0 0 0 4.6l21.2 9.6a5 5 0 0 0 4.1 0l21.3-9.6a2.5 2.5 0 0 0 0-4.6Z" />
    <path d="m55 31-25 11.4a5 5 0 0 1-4.1 0L1 31" />
    <path d="m55 44-25 11.4a5 5 0 0 1-4.1 0L1 44" />
  </g>
  <text x="104" y="60" fill="#0f172a" font-family="Inter, ui-sans-serif, system-ui, -apple-system, BlinkMacSystemFont, Segoe UI, sans-serif" font-size="36" font-weight="800" letter-spacing="-1.2">
    Privexio
  </text>
</svg>
